<svg width="214" height="78" viewBox="0 0 214 78" fill="none" xmlns="http://www.w3.org/2000/svg">
<g id="&#208;&#155;&#208;&#190;&#208;&#179;&#208;&#190; 1">
<g id="WHVRB1IoarJnq9kwdr4t3">
<path id="Vector" d="M80.59 22.0308L80.0796 25.3206H76.0469L74.4645 35.1902H70.3809L72.4737 22.0308H80.59Z" fill="black"/>
</g>
<g id="R4j3iS_XX0Pn6aZ6mtAfS">
<path id="Vector_2" d="M92.4801 30.5334C92.2249 32.0518 91.6123 33.2665 90.5914 34.2281C89.6216 35.1392 88.4985 35.5947 87.2734 35.5947C86.0994 35.5947 85.2316 35.0885 84.568 34.0257C84.517 34.4812 84.4659 35.0379 84.3638 35.6959L83.7002 39.9474H79.9229L82.1178 26.0794H85.7421L85.5889 27.1423C86.4057 26.1806 87.4776 25.7251 88.8559 25.7251C89.9278 25.7251 90.8467 26.0794 91.5613 26.7374C92.2759 27.446 92.6333 28.357 92.6333 29.5717C92.5312 29.8754 92.5312 30.2297 92.4801 30.5334ZM88.6517 30.6346C88.6517 30.4827 88.7027 30.3815 88.7027 30.2297C88.7027 29.268 88.1923 28.7619 87.1203 28.7619C86.5588 28.7619 86.0994 28.9137 85.7421 29.2174C85.3848 29.5211 85.1295 29.926 85.0274 30.4827V30.6346C85.0274 30.7358 84.9764 30.837 84.9764 30.9383C84.9764 31.3938 85.1295 31.7481 85.4358 32.0518C85.7421 32.3554 86.0994 32.5073 86.5588 32.5073C87.7329 32.5073 88.4475 31.8999 88.6517 30.6346Z" fill="black"/>
</g>
<g id="K0_5mO5N8Ntv3oOhG-9l4">
<path id="Vector_3" d="M105.898 26.0791L97.2203 39.9472H93.3408L96.8119 34.6834L93.596 26.0791H97.8839L99.2621 30.938L102.07 26.0791H105.898Z" fill="black"/>
</g>
<g id="CiPBM7CP0GX-N3FARLzlE">
<path id="Vector_4" d="M116.157 26.0796L114.676 35.19H110.899L111.92 28.914H109.521L108.5 35.19H104.773L106.254 26.0796H116.157Z" fill="black"/>
</g>
<g id="Il91sLnEItC1zELZFKME4">
<path id="Vector_5" d="M128.248 26.0796L126.767 35.19H122.99L124.011 28.914H121.612L120.591 35.19H116.813L118.294 26.0796H128.248Z" fill="black"/>
</g>
<g id="JPePg41cF4c0SFN0bKdU_">
<path id="Vector_6" d="M140.853 26.0799L139.373 35.1903H135.749L135.953 34.0262C135.136 35.0384 134.064 35.5446 132.686 35.5446C131.614 35.5446 130.695 35.1903 130.032 34.4311C129.317 33.7225 129.011 32.7608 129.011 31.5461C129.011 31.2424 129.062 30.8881 129.113 30.5845C129.368 29.0661 129.981 27.902 131.002 26.9909C131.971 26.1305 133.043 25.7256 134.32 25.7256C135.596 25.7256 136.514 26.2317 137.025 27.1934L137.229 26.0799H140.853ZM136.514 30.6351C136.514 30.5338 136.514 30.382 136.514 30.2808C136.514 29.8253 136.361 29.471 136.106 29.1673C135.851 28.8636 135.443 28.7624 134.983 28.7624C134.422 28.7624 133.911 28.9142 133.554 29.2685C133.145 29.6228 132.941 30.0783 132.839 30.6351C132.839 30.7869 132.788 30.8881 132.788 31.04C132.788 32.0523 133.299 32.5078 134.371 32.5078C134.932 32.5078 135.391 32.3559 135.8 32.0016C136.208 31.6979 136.412 31.1918 136.514 30.6351Z" fill="black"/>
</g>
<g id="1P3jeoS6TASWgq77_AfMa">
<path id="Vector_7" d="M81.4317 47.252C81.3296 47.91 81.0233 48.5174 80.5639 49.0741C80.1045 49.6309 79.4919 49.9852 78.8283 50.2382C78.8283 50.2382 78.8283 50.2382 78.8283 50.2888C80.1045 50.795 80.7681 51.6554 80.7681 52.8701C80.7681 53.0726 80.7681 53.2751 80.717 53.4775C80.5129 54.6922 79.8493 55.6539 78.6752 56.4637C77.5522 57.2229 76.174 57.5772 74.6426 57.5772C72.6518 57.5772 71.0183 57.071 69.7422 56.0588L71.6309 53.275C72.4476 54.0342 73.3664 54.4391 74.4384 54.4391C74.9489 54.4391 75.4083 54.3379 75.7656 54.0848C76.225 53.7812 76.4292 53.4269 76.4292 52.9207C76.4292 52.2628 75.8677 51.9085 74.7957 51.9085H73.4685L73.9279 49.0235H75.2041C75.7146 49.0235 76.174 48.9223 76.4802 48.7704C76.9397 48.5174 77.1438 48.1631 77.1438 47.7076C77.1438 47.0496 76.5823 46.7459 75.5104 46.7459C74.6426 46.7459 73.6727 47.0496 72.5497 47.6063L71.8861 44.8732C73.5196 44.0128 75.102 43.6079 76.7355 43.6079C78.1648 43.6079 79.2878 43.9116 80.1555 44.5189C81.0233 45.1263 81.4317 45.8855 81.4317 46.8471C81.4827 46.8978 81.4827 47.1002 81.4317 47.252Z" fill="black"/>
</g>
<g id="myO_jS1_8HJA4a_V8KWAl">
<path id="Vector_8" d="M94.0878 48.0134L92.6074 57.1238H88.9832L89.1874 55.9597C88.3706 56.972 87.2987 57.4781 85.9204 57.4781C84.8485 57.4781 83.9296 57.1238 83.266 56.3646C82.5514 55.6561 82.2451 54.6944 82.2451 53.4797C82.2451 53.176 82.2962 52.8217 82.3472 52.518C82.6024 50.9996 83.215 49.8356 84.2359 48.9245C85.2058 48.0641 86.2777 47.6592 87.5539 47.6592C88.83 47.6592 89.7489 48.1653 90.2593 49.1269L90.4635 48.0134H94.0878ZM89.7489 52.5686C89.7489 52.4674 89.7489 52.3156 89.7489 52.2144C89.7489 51.7589 89.5957 51.4046 89.3405 51.1009C89.0853 50.7972 88.6769 50.696 88.2175 50.696C87.656 50.696 87.1455 50.8478 86.7882 51.2021C86.3798 51.5564 86.1756 52.0119 86.0736 52.5686C86.0736 52.7205 86.0225 52.8217 86.0225 52.9736C86.0225 53.9858 86.533 54.4413 87.6049 54.4413C88.1664 54.4413 88.6258 54.2895 89.0342 53.9352C89.3915 53.6315 89.6468 53.1254 89.7489 52.5686Z" fill="black"/>
</g>
<g id="9YXDkIXSEx-3sc0WPPMVV">
<path id="Vector_9" d="M103.066 48.2149L102.556 51.353C102.096 50.9481 101.535 50.7456 100.973 50.7456C100.412 50.7456 99.9525 50.8974 99.5441 51.2517C99.1358 51.606 98.8805 52.0615 98.7784 52.6689C98.7784 52.7701 98.7274 52.922 98.7274 53.0232C98.7274 53.4787 98.8805 53.833 99.1868 54.0861C99.4931 54.3391 99.9015 54.491 100.463 54.491C101.076 54.491 101.637 54.2885 102.147 53.9342L101.637 57.0217C100.871 57.376 100.055 57.5278 99.1868 57.5278C97.8596 57.5278 96.7877 57.1735 96.022 56.4143C95.2052 55.6551 94.7969 54.6935 94.7969 53.4787C94.7969 53.1751 94.7969 52.922 94.8479 52.5677C95.0521 51.1505 95.7157 49.9864 96.8387 49.0754C97.9617 48.1137 99.2889 47.6582 100.769 47.6582C101.586 47.6582 102.352 47.8606 103.066 48.2149Z" fill="black"/>
</g>
<g id="IufQxHFqN4MhY47EO0G5g">
<path id="Vector_10" d="M112.457 48.0132L111.997 50.8475H109.7L108.679 57.1236H104.902L105.923 50.8475H103.677L104.136 48.0132H112.457Z" fill="black"/>
</g>
<g id="GneFIyLJeVWWtJdx1cn_w">
<path id="Vector_11" d="M124.449 52.467C124.194 53.9854 123.581 55.2001 122.56 56.1617C121.591 57.0728 120.468 57.5283 119.242 57.5283C118.068 57.5283 117.201 57.0221 116.537 55.9593C116.486 56.4148 116.435 56.9715 116.333 57.6295L115.669 61.881H111.841L114.036 48.013H117.66L117.507 49.0759C118.324 48.1142 119.396 47.6587 120.774 47.6587C121.846 47.6587 122.765 48.013 123.479 48.671C124.194 49.3795 124.551 50.2906 124.551 51.5053C124.5 51.809 124.5 52.1633 124.449 52.467ZM120.621 52.5682C120.621 52.4163 120.672 52.3151 120.672 52.1633C120.672 51.2016 120.161 50.6955 119.089 50.6955C118.528 50.6955 118.068 50.8473 117.711 51.151C117.354 51.4547 117.099 51.8596 116.996 52.4163V52.5682C116.996 52.6694 116.945 52.7706 116.945 52.8719C116.945 53.3274 117.099 53.6817 117.405 53.9854C117.711 54.289 118.068 54.4409 118.528 54.4409C119.702 54.4409 120.417 53.8335 120.621 52.5682Z" fill="black"/>
</g>
<g id="2uZVlj-50ISBLovPIPjKo">
<path id="Vector_12" d="M136.082 52.5686C135.877 53.9858 135.163 55.1499 133.989 56.061C132.815 57.0226 131.385 57.4781 129.701 57.4781C128.221 57.4781 126.995 57.0732 126.128 56.314C125.26 55.5548 124.852 54.5426 124.852 53.3278C124.852 53.0748 124.852 52.8217 124.903 52.518C125.107 51.1009 125.821 49.9874 126.995 49.0763C128.17 48.1147 129.599 47.6592 131.283 47.6592C132.764 47.6592 133.938 48.0641 134.857 48.8233C135.724 49.5825 136.133 50.5441 136.133 51.7588C136.133 52.0625 136.133 52.3156 136.082 52.5686ZM132.202 52.5686C132.202 52.4674 132.253 52.3662 132.253 52.265C132.253 51.8601 132.151 51.5058 131.896 51.2527C131.641 50.949 131.283 50.7972 130.824 50.7972C130.262 50.7972 129.803 50.9996 129.395 51.4045C128.986 51.8095 128.782 52.3156 128.782 52.8217C128.782 53.2266 128.884 53.5809 129.139 53.8846C129.395 54.1883 129.752 54.3401 130.211 54.3401C130.722 54.3401 131.181 54.1377 131.539 53.7834C131.896 53.4797 132.151 53.0242 132.202 52.5686Z" fill="black"/>
</g>
<g id="cgz-LCy4gt7rBFl1c6uAa">
<path id="Vector_13" d="M148.226 48.0118L146.746 57.1222H143.071L143.785 52.5164L140.11 57.1222H136.588L138.068 48.0118H141.744L141.029 52.5164L144.704 48.0118H148.226ZM146.95 44.3677C146.797 45.1775 146.44 45.8861 145.776 46.3922C145.113 46.8983 144.296 47.1514 143.326 47.1514C142.458 47.1514 141.744 46.9489 141.233 46.544C140.723 46.1391 140.467 45.5824 140.467 44.8738C140.467 44.722 140.467 44.5701 140.518 44.3677H142.611C142.611 44.4689 142.611 44.5701 142.611 44.6713C142.611 45.2281 142.918 45.5318 143.581 45.5318C144.347 45.5318 144.755 45.1775 144.857 44.4183H146.95V44.3677Z" fill="black"/>
</g>
<g id="1o3YevGPSVxMd2IbU6ZCZ">
<path id="Vector_14" d="M165.678 54.338L164.913 59.1969H161.748L162.054 57.1724H149.344L150.824 48.062H154.448L153.427 54.338H155.469L156.49 48.062H159.91L158.889 54.338H160.931L161.952 48.062H165.576L164.555 54.338H165.678Z" fill="black"/>
</g>
<g id="nIGjvI0wT8_a73cfNwWeI">
<path id="Vector_15" d="M177.876 48.0132L176.395 57.1236H172.72L173.435 52.5178L169.759 57.1236H166.237L167.718 48.0132H171.393L170.678 52.5178L174.354 48.0132H177.876Z" fill="black"/>
</g>
<g id="Twp5uxitYCWfwFtuV8vvD">
<path id="Vector_16" d="M190.784 48.0122L186.598 52.3143L189.559 57.1732H185.015L183.025 52.8711L182.361 57.1732H178.635L180.115 48.0628H183.841L183.229 52.0107L186.496 48.0628H190.784V48.0122Z" fill="black"/>
</g>
<g id="vTm0-FaK7h1hv17109fJL">
<path id="Vector_17" d="M201.448 52.5686C201.244 53.9858 200.529 55.1499 199.355 56.061C198.181 57.0226 196.752 57.4781 195.067 57.4781C193.587 57.4781 192.362 57.0732 191.494 56.314C190.626 55.5548 190.218 54.5426 190.218 53.3278C190.218 53.0748 190.218 52.8217 190.269 52.518C190.473 51.1009 191.188 49.9874 192.362 49.0763C193.536 48.1147 194.965 47.6592 196.65 47.6592C198.13 47.6592 199.304 48.0641 200.223 48.8233C201.091 49.5825 201.499 50.5441 201.499 51.7588C201.55 52.0625 201.499 52.3156 201.448 52.5686ZM197.619 52.5686C197.619 52.4674 197.67 52.3662 197.67 52.265C197.67 51.8601 197.568 51.5058 197.313 51.2527C197.058 50.949 196.701 50.7972 196.241 50.7972C195.68 50.7972 195.22 50.9996 194.812 51.4045C194.404 51.8095 194.199 52.3156 194.199 52.8217C194.199 53.2266 194.301 53.5809 194.557 53.8846C194.812 54.1883 195.169 54.3401 195.629 54.3401C196.139 54.3401 196.598 54.1377 196.956 53.7834C197.313 53.4797 197.517 53.0242 197.619 52.5686Z" fill="black"/>
</g>
<g id="alhEMBWVaiuiO2yqFC0Qp">
<path id="Vector_18" d="M212.471 50.1896C212.42 50.6451 212.165 51.05 211.808 51.3537C211.399 51.708 210.889 51.961 210.276 52.0623C211.706 52.4165 212.42 53.1251 212.42 54.188C212.42 54.2892 212.42 54.4411 212.369 54.5423C212.267 55.3015 211.808 55.9089 211.093 56.3644C210.327 56.8705 209.306 57.1236 208.03 57.1236H202.364L203.845 48.0132H208.796C211.246 48.0132 212.471 48.6206 212.471 49.8353C212.471 49.9365 212.471 50.0884 212.471 50.1896ZM208.49 54.0362C208.49 53.53 208.132 53.277 207.469 53.277H206.601L206.346 54.9978H207.214C207.571 54.9978 207.826 54.9472 208.081 54.7954C208.337 54.5929 208.49 54.3399 208.49 54.0362ZM208.847 50.8475C208.847 50.7969 208.847 50.7463 208.847 50.6957C208.847 50.2908 208.541 50.0377 207.877 50.0377H207.163L206.907 51.6573H207.673C208.337 51.708 208.745 51.4043 208.847 50.8475Z" fill="black"/>
</g>
<g id="FL6BIl5RJJTY1bl_MhW0k">
<path id="Vector_19" d="M34.438 76.7867L8.63536 62.6774L8.53047 62.6081L8.49551 62.4694L1.53789 21.008L1.50293 20.8347L1.64278 20.7307L33.8086 1.59471L34.403 1.24805L34.9974 1.59471L67.1632 20.7307L67.3031 20.8347L67.2681 21.008L60.2756 62.4694L60.2406 62.5734L60.1357 62.6427L34.438 76.7867ZM34.438 75.0534L59.9959 62.2267L59.856 62.4L66.8486 20.9387L66.9535 21.1814L33.8436 3.70937H35.0323L1.92248 21.1814L2.02737 20.9387L9.01995 62.4L8.8801 62.192L34.438 75.0534Z" fill="black"/>
</g>
<g id="WHnAX6Jc07q_L3ko87wm3">
<path id="Vector_20" d="M12.608 16.3628H12.8877V66.1441H12.608V16.3628Z" fill="black"/>
</g>
<g id="OLqlSF3hI1kVakSi3ulMg">
<path id="Vector_21" d="M22.6521 10.1055H22.9668V70.7721H22.6521V10.1055Z" fill="black"/>
</g>
<g id="v6QMVKYeejRMmd45UWLlb">
<path id="Vector_22" d="M55.6992 66.151V16.3696H55.9789V66.151H55.6992Z" fill="black"/>
</g>
<g id="G6tKtvr_AuiPnPEq0J9hh">
<path id="Vector_23" d="M45.623 70.7858V10.1191H45.9377V70.7858H45.623Z" fill="black"/>
</g>
<g id="AwRPuDc7reSwNvnSakxtX">
<path id="Vector_24" d="M34.2637 75.5387V1.49072H34.5783V75.5387H34.2637Z" fill="black"/>
</g>
<g id="qlaqbf9s4juNCh0kS_wSz">
<path id="Vector_25" d="M34.473 31.6162L64.5062 36.8162L34.3682 32.2402L34.473 31.6162Z" fill="black"/>
</g>
<g id="QLKMxN1Rs470feHdcNfly">
<path id="Vector_26" d="M34.6481 16.1548L65.4504 30.1948L34.4033 16.7094L34.6481 16.1548Z" fill="black"/>
</g>
<g id="qWZl6HEBoeOAYZTm2_pBx">
<path id="Vector_27" d="M34.4736 49.4002L63.1782 45.1709L34.5785 50.0242L34.4736 49.4002Z" fill="black"/>
</g>
<g id="xxTFV-2KC_LXu8Gj_uWnV">
<path id="Vector_28" d="M34.2988 64.4107L61.8146 52.208L34.5436 64.9653L34.2988 64.4107Z" fill="black"/>
</g>
<g id="-xfQdWL0g7mf37GQhsSek">
<path id="Vector_29" d="M34.4738 32.2402L4.30078 36.8162L34.3689 31.6162L34.4738 32.2402Z" fill="black"/>
</g>
<g id="CfIb_bITOroGBn5TaZ9Hi">
<path id="Vector_30" d="M34.4377 16.7094L3.39062 30.1948L34.1929 16.1548L34.4377 16.7094Z" fill="black"/>
</g>
<g id="ljUeQOx8mk4E4hDMYljpf">
<path id="Vector_31" d="M34.2637 50.0242L5.66406 45.1709L34.3686 49.4002L34.2637 50.0242Z" fill="black"/>
</g>
<g id="atfGyy4ahf1Rw7Ki3O0VE">
<path id="Vector_32" d="M34.2984 64.9653L7.02734 52.208L34.5431 64.4107L34.2984 64.9653Z" fill="black"/>
</g>
<g id="bk-w-L-YzDNFhwIqDlUz1">
<path id="Vector_33" d="M13.2514 27.456L11.9229 26.6933L13.1116 26.1387V26.1733L13.2514 27.456Z" fill="black"/>
</g>
<g id="NJgU4Yect9X-Q5f3sOpKS">
<path id="Vector_34" d="M15.769 54.6347L14.4054 55.3974L11.7832 26.8667L13.2516 27.7334L15.769 54.6347Z" fill="black"/>
</g>
<g id="3pGdavPUeCjAJyrveVTJw">
<path id="Vector_35" d="M34.0194 64.7917L32.6559 64.0984L32.5859 56.9917L34.0194 57.8237V64.7917Z" fill="#009FE3"/>
</g>
<g id="hODMvaxQZMsiQWhm5Q3pY">
<path id="Vector_36" d="M34.088 39.9012L32.7594 39.9358L32.6895 34.1812L34.088 34.1465V39.9012Z" fill="#009FE3"/>
</g>
<g id="K4nX59iQW0fvJLPgGCfQc">
<path id="Vector_37" d="M33.9844 17.1943V18.685L13.3913 27.525L13.2514 27.4557L11.9229 26.693L13.1116 26.173L33.9844 17.1943Z" fill="black"/>
</g>
<g id="SUfIG9IsguszMUvtIvtkz">
<path id="Vector_38" d="M54.0522 41.0107L55.4507 41.1147L54.6466 49.9894L53.248 49.4347L54.0522 41.0107Z" fill="#009FE3"/>
</g>
<g id="QFTH4rpDU2XoYqs9nwuHM">
<path id="Vector_39" d="M54.4026 37.1279L55.8011 37.3359L55.4864 40.8026L54.0879 40.7333L54.4026 37.1279Z" fill="black"/>
</g>
<g id="UcStLs-2Oq-1lX3WhQw1d">
<path id="Vector_40" d="M56.5352 26.728L55.3115 27.4907L55.4164 26.2427L56.4303 26.6933L56.5352 26.728Z" fill="black"/>
</g>
<g id="kmhViFzUs6TNIS7rp_xca">
<path id="Vector_41" d="M56.7451 26.936V27.04L55.836 37.024L54.4375 36.816L55.2766 27.9067L55.4514 27.768L56.7451 26.936Z" fill="#009FE3"/>
</g>
<g id="L3MzFY5nUOen5MNF2Ind-">
<path id="Vector_42" d="M56.5348 26.7277L55.3111 27.4903L55.1363 27.629L34.7529 18.685V17.229L55.416 26.2423L56.4299 26.693L56.5348 26.7277Z" fill="#009FE3"/>
</g>
<g id="Xez1v1pGZZFZxDmQoTel9">
<path id="Vector_43" d="M59.4717 38.3065L56.7796 39.1731L59.1221 40.4211L58.9473 41.4611L57.2341 54.2531L34.4033 64.6878L34.5082 57.7198L55.0314 50.1278L55.6957 40.8718L34.5082 39.9358L34.4732 34.1118L56.0803 37.3705L57.339 26.5198L34.5082 16.4318H34.4383V7.73047L62.0939 22.6025L59.4717 38.3065Z" fill="black"/>
</g>
<g id="jOclP-v34WNqNrXEsWzm6">
<path id="Vector_44" d="M34.4378 7.73047V16.4318H34.3329L11.3622 26.6238L13.9844 55.2585L10.6979 53.8025L5.69824 23.1571L34.4378 7.73047Z" fill="#009FE3"/>
</g>
<g id="ANLoYumaDgkSUswQ0zMLE">
<path id="Vector_45" d="M54.1581 50.1279L53.1791 50.5092L34.0194 57.5812L32.5859 56.7839L53.0043 49.6772L53.2141 49.7812L54.1581 50.1279Z" fill="#009FE3"/>
</g>
</g>
</svg>
